<svg xmlns="http://www.w3.org/2000/svg" width="392.4" height="59.2" viewBox="0 0 392.4 59.2">
  <path id="Caminho_1" data-name="Caminho 1" d="M7.12,0V-56.8h24a14.744,14.744,0,0,1,6.76,1.56,17.814,17.814,0,0,1,5.32,4.08,18.709,18.709,0,0,1,3.48,5.72,17.8,17.8,0,0,1,1.24,6.48A19.219,19.219,0,0,1,47-33a18.425,18.425,0,0,1-2.56,5.12,15.487,15.487,0,0,1-3.96,3.84,14,14,0,0,1-5.2,2.12L49.2,0H42.88L29.52-20.96H12.72V0Zm5.6-25.92H31.28A9.509,9.509,0,0,0,35.8-27a10.782,10.782,0,0,0,3.48-2.92,14.206,14.206,0,0,0,2.24-4.16,14.864,14.864,0,0,0,.8-4.88,13.428,13.428,0,0,0-.92-4.92A13.582,13.582,0,0,0,38.92-48a11.836,11.836,0,0,0-3.68-2.8,9.958,9.958,0,0,0-4.44-1.04H12.72ZM75.04.8A20.038,20.038,0,0,1,66.68-.92a20.487,20.487,0,0,1-6.6-4.72,21.917,21.917,0,0,1-4.36-6.92,22.507,22.507,0,0,1-1.56-8.4,21.986,21.986,0,0,1,1.56-8.28,21.431,21.431,0,0,1,4.32-6.8,20.5,20.5,0,0,1,6.6-4.64,20.118,20.118,0,0,1,8.32-1.72,20.038,20.038,0,0,1,8.36,1.72A19.875,19.875,0,0,1,89.84-36a21.823,21.823,0,0,1,4.24,6.8,21.967,21.967,0,0,1,1.52,8.16v1.28a3.22,3.22,0,0,1-.08.88H59.84a17.545,17.545,0,0,0,1.56,6.2,17.042,17.042,0,0,0,3.4,4.92,15.233,15.233,0,0,0,4.76,3.24,14.244,14.244,0,0,0,5.72,1.16,14.776,14.776,0,0,0,4-.56,16.171,16.171,0,0,0,3.68-1.52A13.686,13.686,0,0,0,86-7.8a10.135,10.135,0,0,0,2.08-3.08L92.8-9.6a13.861,13.861,0,0,1-2.72,4.2A18.988,18.988,0,0,1,86-2.12,19.982,19.982,0,0,1,80.88.04,22.2,22.2,0,0,1,75.04.8ZM90.4-23.04a16.832,16.832,0,0,0-1.56-6.12,16.658,16.658,0,0,0-3.36-4.76,14.86,14.86,0,0,0-4.72-3.12,14.683,14.683,0,0,0-5.72-1.12,14.979,14.979,0,0,0-5.76,1.12,14.745,14.745,0,0,0-4.76,3.12,15.333,15.333,0,0,0-3.28,4.8,18.172,18.172,0,0,0-1.48,6.08ZM114.48.8A14.725,14.725,0,0,1,109-.2a13.83,13.83,0,0,1-4.4-2.76,12.481,12.481,0,0,1-2.92-4.12,12.456,12.456,0,0,1-1.04-5.08,10.263,10.263,0,0,1,1.28-5.04,12.2,12.2,0,0,1,3.6-4,17.627,17.627,0,0,1,5.52-2.6,25.418,25.418,0,0,1,7.04-.92,38.451,38.451,0,0,1,6.48.56,28.087,28.087,0,0,1,5.84,1.6v-3.76a12.1,12.1,0,0,0-3.12-8.76q-3.12-3.24-8.64-3.24a18.361,18.361,0,0,0-6.56,1.28,31.637,31.637,0,0,0-6.8,3.68l-1.92-3.6q8.08-5.44,15.68-5.44,7.84,0,12.32,4.4t4.48,12.16v18.8q0,2.24,2,2.24V0a12.968,12.968,0,0,1-2.08.24A4.684,4.684,0,0,1,132.52-.8a3.913,3.913,0,0,1-1.24-2.88l-.16-3.28a18.905,18.905,0,0,1-7.24,5.76A22.273,22.273,0,0,1,114.48.8Zm1.28-4.16a18.808,18.808,0,0,0,7.8-1.6,12.738,12.738,0,0,0,5.4-4.24,4.983,4.983,0,0,0,1.08-1.56,3.984,3.984,0,0,0,.36-1.56v-6.8a33.344,33.344,0,0,0-5.64-1.6,31.573,31.573,0,0,0-5.96-.56,16.58,16.58,0,0,0-9.36,2.4,7.3,7.3,0,0,0-3.6,6.32,8.632,8.632,0,0,0,.76,3.6,9.122,9.122,0,0,0,2.08,2.92,9.741,9.741,0,0,0,3.16,1.96A10.661,10.661,0,0,0,115.76-3.36Zm28.96-17.6a22.81,22.81,0,0,1,1.52-8.32,20.776,20.776,0,0,1,4.28-6.84,20,20,0,0,1,6.6-4.6,20.931,20.931,0,0,1,8.48-1.68,19.446,19.446,0,0,1,10.32,2.68,17.214,17.214,0,0,1,6.64,7.24l-5.28,1.68a12.674,12.674,0,0,0-4.92-5,13.893,13.893,0,0,0-7-1.8,13.991,13.991,0,0,0-5.96,1.28,15.2,15.2,0,0,0-4.8,3.48,16,16,0,0,0-3.2,5.24,18.477,18.477,0,0,0-1.16,6.64,18.336,18.336,0,0,0,1.2,6.64,16.939,16.939,0,0,0,3.28,5.4,15.616,15.616,0,0,0,4.84,3.6A13.456,13.456,0,0,0,165.44-4a14.349,14.349,0,0,0,3.96-.56,15.3,15.3,0,0,0,3.64-1.56,13.092,13.092,0,0,0,2.88-2.28,7.412,7.412,0,0,0,1.68-2.72l5.36,1.6A13.636,13.636,0,0,1,180.4-5.4a17.661,17.661,0,0,1-3.96,3.28A19.431,19.431,0,0,1,171.4.04a21.447,21.447,0,0,1-5.72.76,20.313,20.313,0,0,1-8.4-1.72,20.367,20.367,0,0,1-6.64-4.72,21.918,21.918,0,0,1-4.36-6.92A22.508,22.508,0,0,1,144.72-20.96ZM211.52-2q-.48.24-1.4.64T208-.56a24.815,24.815,0,0,1-2.72.72,15.5,15.5,0,0,1-3.2.32A11.631,11.631,0,0,1,198.72,0a7.834,7.834,0,0,1-2.8-1.48A7.285,7.285,0,0,1,194-4a8.136,8.136,0,0,1-.72-3.52V-37.36h-5.76v-4.32h5.76V-55.76h5.44v14.08h9.6v4.32h-9.6V-9.04a4.321,4.321,0,0,0,1.64,3.4,5.618,5.618,0,0,0,3.4,1.08,10.217,10.217,0,0,0,4.08-.76,17.985,17.985,0,0,0,2.24-1.08Zm6.8,2V-41.68h5.44V0Zm0-50.4v-8h5.44v8ZM253.52.8A19.765,19.765,0,0,1,245.2-.92a20.448,20.448,0,0,1-6.52-4.68,21.236,21.236,0,0,1-4.28-6.88,22.592,22.592,0,0,1-1.52-8.24,22.293,22.293,0,0,1,1.56-8.32,21.8,21.8,0,0,1,4.32-6.88,20.98,20.98,0,0,1,6.52-4.72,19.193,19.193,0,0,1,8.24-1.76,19.459,19.459,0,0,1,8.28,1.76,20.845,20.845,0,0,1,6.56,4.72,21.8,21.8,0,0,1,4.32,6.88,22.292,22.292,0,0,1,1.56,8.32,22.592,22.592,0,0,1-1.52,8.24,21.236,21.236,0,0,1-4.28,6.88,20.324,20.324,0,0,1-6.56,4.68A20.038,20.038,0,0,1,253.52.8ZM238.4-20.64a17.4,17.4,0,0,0,1.2,6.52,17.7,17.7,0,0,0,3.24,5.28,14.647,14.647,0,0,0,4.8,3.56A13.807,13.807,0,0,0,253.52-4a13.456,13.456,0,0,0,5.88-1.32,15.615,15.615,0,0,0,4.84-3.6,17.153,17.153,0,0,0,3.28-5.32,17.7,17.7,0,0,0,1.2-6.56,17.8,17.8,0,0,0-1.2-6.52,17.042,17.042,0,0,0-3.28-5.36,15.615,15.615,0,0,0-4.84-3.6,13.456,13.456,0,0,0-5.88-1.32,13.2,13.2,0,0,0-5.84,1.32,15.478,15.478,0,0,0-4.8,3.64,17.545,17.545,0,0,0-3.28,5.4A18.019,18.019,0,0,0,238.4-20.64ZM318.4,0h-5.44V-23.28q0-7.44-2.2-10.8A7.517,7.517,0,0,0,304-37.44a13.861,13.861,0,0,0-4.8.88,16.182,16.182,0,0,0-4.44,2.48,18.981,18.981,0,0,0-3.64,3.8,14.9,14.9,0,0,0-2.32,4.76V0h-5.44V-41.68h4.96v9.44a19.581,19.581,0,0,1,7.32-7.36A20.071,20.071,0,0,1,306-42.4a12.272,12.272,0,0,1,5.84,1.28,9.965,9.965,0,0,1,3.84,3.6,16.583,16.583,0,0,1,2.08,5.68,39.877,39.877,0,0,1,.64,7.44Zm35.68-7.68a14.359,14.359,0,0,0,7.44-1.76,14.039,14.039,0,0,0,4.76-4.6,19.39,19.39,0,0,0,2.56-6.48A36.5,36.5,0,0,0,369.6-28V-56.8h9.04V-28a43.016,43.016,0,0,1-1.36,11,25.389,25.389,0,0,1-4.32,9.04,20.631,20.631,0,0,1-7.64,6.12A25.84,25.84,0,0,1,354.08.4,25.307,25.307,0,0,1,342.6-1.96a20.672,20.672,0,0,1-7.56-6.32,25.971,25.971,0,0,1-4.16-9.08A43.708,43.708,0,0,1,329.6-28V-56.8h8.96V-28a36.9,36.9,0,0,0,.76,7.56,19.39,19.39,0,0,0,2.56,6.48,13.58,13.58,0,0,0,4.8,4.56A14.677,14.677,0,0,0,354.08-7.68ZM390.56,0V-56.8h8.96V0Z" transform="translate(-7.12 58.4)" fill="#707070"/>
</svg>
