<svg xmlns="http://www.w3.org/2000/svg" xmlns:xlink="http://www.w3.org/1999/xlink" width="280" height="362" viewBox="0 0 280 362">
  <defs>
    <filter id="Rectangle_18" x="20.739" y="20.672" width="238.521" height="145.804" filterUnits="userSpaceOnUse">
      <feOffset dy="12" input="SourceAlpha"/>
      <feGaussianBlur stdDeviation="11.5" result="blur"/>
      <feFlood flood-color="#3a6faf" flood-opacity="0.078"/>
      <feComposite operator="in" in2="blur"/>
      <feComposite in="SourceGraphic"/>
    </filter>
    <filter id="Rectangle_18-2" x="20.739" y="108.448" width="238.521" height="145.804" filterUnits="userSpaceOnUse">
      <feOffset dy="12" input="SourceAlpha"/>
      <feGaussianBlur stdDeviation="11.5" result="blur-2"/>
      <feFlood flood-color="#3a6faf" flood-opacity="0.078"/>
      <feComposite operator="in" in2="blur-2"/>
      <feComposite in="SourceGraphic"/>
    </filter>
    <filter id="Rectangle_18-3" x="20.739" y="196.224" width="238.521" height="145.804" filterUnits="userSpaceOnUse">
      <feOffset dy="12" input="SourceAlpha"/>
      <feGaussianBlur stdDeviation="11.5" result="blur-3"/>
      <feFlood flood-color="#3a6faf" flood-opacity="0.078"/>
      <feComposite operator="in" in2="blur-3"/>
      <feComposite in="SourceGraphic"/>
    </filter>
    <filter id="Oval_9" x="169.521" y="0" width="110.479" height="110.344" filterUnits="userSpaceOnUse">
      <feOffset dy="12" input="SourceAlpha"/>
      <feGaussianBlur stdDeviation="11.5" result="blur-4"/>
      <feFlood flood-color="#ff6363" flood-opacity="0.329"/>
      <feComposite operator="in" in2="blur-4"/>
      <feComposite in="SourceGraphic"/>
    </filter>
    <filter id="Oval_9-2" x="0" y="251.656" width="110.479" height="110.344" filterUnits="userSpaceOnUse">
      <feOffset dy="12" input="SourceAlpha"/>
      <feGaussianBlur stdDeviation="11.5" result="blur-5"/>
      <feFlood flood-color="#ea63ff" flood-opacity="0.329"/>
      <feComposite operator="in" in2="blur-5"/>
      <feComposite in="SourceGraphic"/>
    </filter>
    <filter id="Oval_9-3" x="0" y="81.788" width="110.479" height="110.344" filterUnits="userSpaceOnUse">
      <feOffset dy="12" input="SourceAlpha"/>
      <feGaussianBlur stdDeviation="11.5" result="blur-6"/>
      <feFlood flood-color="#63b3ff" flood-opacity="0.329"/>
      <feComposite operator="in" in2="blur-6"/>
      <feComposite in="SourceGraphic"/>
    </filter>
    <filter id="Oval_9-4" x="169.521" y="169.868" width="110.479" height="110.344" filterUnits="userSpaceOnUse">
      <feOffset dy="12" input="SourceAlpha"/>
      <feGaussianBlur stdDeviation="11.5" result="blur-7"/>
      <feFlood flood-color="#75ff63" flood-opacity="0.329"/>
      <feComposite operator="in" in2="blur-7"/>
      <feComposite in="SourceGraphic"/>
    </filter>
  </defs>
  <g id="Artwork" transform="translate(34.5 22.5)">
    <g id="list" transform="translate(20.739 20.672)">
      <g id="Group_2" data-name="Group 2">
        <g transform="matrix(1, 0, 0, 1, -55.24, -43.17)" filter="url(#Rectangle_18)">
          <rect id="Rectangle_18-4" data-name="Rectangle 18" width="169.521" height="76.804" rx="13.5" transform="translate(55.24 43.17)" fill="#fff"/>
        </g>
        <rect id="Rectangle" width="115.95" height="6.583" rx="3.292" transform="translate(14.677 18.287)" fill="#1b3554" opacity="0.3"/>
        <rect id="Rectangle_Copy" data-name="Rectangle Copy" width="82.926" height="6.583" rx="3.292" transform="translate(14.677 31.453)" fill="#1b3554" opacity="0.3"/>
        <rect id="Rectangle_Copy_2" data-name="Rectangle Copy 2" width="27.153" height="6.583" rx="3.292" transform="translate(14.677 51.934)" fill="#1b3554" opacity="0.15"/>
        <ellipse id="Oval_8" data-name="Oval 8" cx="15.411" cy="15.361" rx="15.411" ry="15.361" transform="translate(124.022 31.453)" fill="#1b3554" opacity="0.3"/>
      </g>
      <g id="Group_2_Copy" data-name="Group 2 Copy" transform="translate(0 87.776)">
        <g transform="matrix(1, 0, 0, 1, -55.24, -130.95)" filter="url(#Rectangle_18-2)">
          <rect id="Rectangle_18-5" data-name="Rectangle 18" width="169.521" height="76.804" rx="13.5" transform="translate(55.24 130.95)" fill="#fff"/>
        </g>
        <rect id="Rectangle-2" data-name="Rectangle" width="115.95" height="6.583" rx="3.292" transform="translate(14.677 18.287)" fill="#1b3554" opacity="0.3"/>
        <rect id="Rectangle_Copy-2" data-name="Rectangle Copy" width="82.926" height="6.583" rx="3.292" transform="translate(14.677 31.453)" fill="#1b3554" opacity="0.3"/>
        <rect id="Rectangle_Copy_2-2" data-name="Rectangle Copy 2" width="27.153" height="6.583" rx="3.292" transform="translate(14.677 51.934)" fill="#1b3554" opacity="0.15"/>
        <ellipse id="Oval_8-2" data-name="Oval 8" cx="15.411" cy="15.361" rx="15.411" ry="15.361" transform="translate(124.022 31.453)" fill="#1b3554" opacity="0.3"/>
      </g>
      <g id="Group_2_Copy_2" data-name="Group 2 Copy 2" transform="translate(0 175.553)">
        <g transform="matrix(1, 0, 0, 1, -55.24, -218.72)" filter="url(#Rectangle_18-3)">
          <rect id="Rectangle_18-6" data-name="Rectangle 18" width="169.521" height="76.804" rx="13.5" transform="translate(55.24 218.72)" fill="#fff"/>
        </g>
        <rect id="Rectangle-3" data-name="Rectangle" width="115.95" height="6.583" rx="3.292" transform="translate(14.677 18.287)" fill="#1b3554" opacity="0.3"/>
        <rect id="Rectangle_Copy-3" data-name="Rectangle Copy" width="82.926" height="6.583" rx="3.292" transform="translate(14.677 31.453)" fill="#1b3554" opacity="0.3"/>
        <rect id="Rectangle_Copy_2-3" data-name="Rectangle Copy 2" width="27.153" height="6.583" rx="3.292" transform="translate(14.677 51.934)" fill="#1b3554" opacity="0.15"/>
        <ellipse id="Oval_8-3" data-name="Oval 8" cx="15.411" cy="15.361" rx="15.411" ry="15.361" transform="translate(124.022 31.453)" fill="#1b3554" opacity="0.3"/>
      </g>
    </g>
    <g id="heart" transform="translate(169.521)">
      <g transform="matrix(1, 0, 0, 1, -204.02, -22.5)" filter="url(#Oval_9)">
        <ellipse id="Oval_9-5" data-name="Oval 9" cx="20.739" cy="20.672" rx="20.739" ry="20.672" transform="translate(204.02 22.5)" fill="#ff6363"/>
      </g>
      <path id="Shape" d="M9.918,17.695c-19.35-10.521-5.356-23.6,0-14.792C15.275-5.907,29.27,7.173,9.918,17.695Z" transform="translate(10.821 12.781)" fill="#fff"/>
    </g>
    <g id="messages" transform="translate(0 251.656)">
      <g transform="matrix(1, 0, 0, 1, -34.5, -274.16)" filter="url(#Oval_9-2)">
        <ellipse id="Oval_9-6" data-name="Oval 9" cx="20.739" cy="20.672" rx="20.739" ry="20.672" transform="translate(34.5 274.16)" fill="#ea63ff"/>
      </g>
      <path id="Shape-2" data-name="Shape" d="M1.8,14.38a1.806,1.806,0,0,1-1.8-1.8V1.8A1.806,1.806,0,0,1,1.8,0H16.231a1.806,1.806,0,0,1,1.8,1.8V12.583a1.806,1.806,0,0,1-1.8,1.8Z" transform="translate(11.722 13.482)" fill="#fff"/>
    </g>
    <g id="music" transform="translate(0 81.788)">
      <g transform="matrix(1, 0, 0, 1, -34.5, -104.29)" filter="url(#Oval_9-3)">
        <ellipse id="Oval_9-7" data-name="Oval 9" cx="20.739" cy="20.672" rx="20.739" ry="20.672" transform="translate(34.5 104.29)" fill="#63caff"/>
      </g>
      <path id="Shape-3" data-name="Shape" d="M16.127.3A1.68,1.68,0,0,0,14.59.1L6.148,3.2a1.676,1.676,0,0,0-1.1,1.566v9.472a2.434,2.434,0,0,0-1.778-.379,3.837,3.837,0,0,0-2.13,1.11A3.816,3.816,0,0,0,.031,17.1a2.335,2.335,0,0,0,.609,2.043,2.254,2.254,0,0,0,1.627.637,3,3,0,0,0,.422-.031,3.837,3.837,0,0,0,2.13-1.11,3.817,3.817,0,0,0,1.114-2.123,3,3,0,0,0,.029-.356c0-.007,0-8.214,0-8.214l9.971-3.661v5.965a2.434,2.434,0,0,0-1.778-.379A4.012,4.012,0,0,0,10.912,13.1a2.335,2.335,0,0,0,.608,2.043,2.254,2.254,0,0,0,1.627.637,2.993,2.993,0,0,0,.422-.031,4.012,4.012,0,0,0,3.244-3.233c.017-.121.03-10.847.03-10.847A1.669,1.669,0,0,0,16.127.3Z" transform="translate(10.821 9.887)" fill="#fff"/>
    </g>
    <g id="people" transform="translate(169.521 169.868)">
      <g transform="matrix(1, 0, 0, 1, -204.02, -192.37)" filter="url(#Oval_9-4)">
        <ellipse id="Oval_9-8" data-name="Oval 9" cx="20.739" cy="20.672" rx="20.739" ry="20.672" transform="translate(204.02 192.37)" fill="#75ff63"/>
      </g>
      <path id="Shape-4" data-name="Shape" d="M0,18.357V16.321a2.994,2.994,0,0,1,1.989-2.814L6,12.08V10.273A5.812,5.812,0,0,1,3.748,5.55c0-.215.013-.429.034-.639A6.52,6.52,0,0,0,5.89,5.55a4.711,4.711,0,0,0,3.2-1.327A3.488,3.488,0,0,0,12.314,5.55a2.556,2.556,0,0,0,.849-.183l.008.182a5.88,5.88,0,0,1-2.035,4.562V12.08l4.007,1.426a3,3,0,0,1,1.99,2.814v2.037ZM9.486,3.263,9.1,2.586l-.362.693A3.54,3.54,0,0,1,5.89,4.7a6.775,6.775,0,0,1-1.96-.656A4.907,4.907,0,0,1,8.459,0c2.288,0,4.2,1.933,4.622,4.486a2.332,2.332,0,0,1-.768.211C10.927,4.7,10.19,4.489,9.486,3.263Z" transform="translate(12.624 9.437)" fill="#fff"/>
    </g>
  </g>
</svg>
