<svg xmlns="http://www.w3.org/2000/svg" xmlns:xlink="http://www.w3.org/1999/xlink" width="190.881" height="286.787" viewBox="0 0 190.881 286.787">
  <defs>
    <filter id="Combined_Shape" x="0" y="131.1" width="172.349" height="132.393" filterUnits="userSpaceOnUse">
      <feOffset dx="8" dy="-3" input="SourceAlpha"/>
      <feGaussianBlur result="blur"/>
      <feFlood flood-color="#e4e4e4"/>
      <feComposite operator="in" in2="blur"/>
      <feComposite in="SourceGraphic"/>
    </filter>
    <filter id="Oval_2" x="134.806" y="230.712" width="56.075" height="56.075" filterUnits="userSpaceOnUse">
      <feOffset dy="2" input="SourceAlpha"/>
      <feGaussianBlur stdDeviation="4" result="blur-2"/>
      <feFlood flood-color="#44ceff" flood-opacity="0.529"/>
      <feComposite operator="in" in2="blur-2"/>
      <feComposite in="SourceGraphic"/>
    </filter>
  </defs>
  <g id="Artwork" transform="translate(-0.811 -0.76)">
    <g id="folder" transform="translate(0 134.86)">
      <path id="Combined_Shape_Copy" data-name="Combined Shape Copy" d="M0,14.548A20,20,0,0,1,19.242,0H73.854a11,11,0,0,1,10.82,12.984L69.953,93.251H4.152A20,20,0,0,1-15.09,67.8Z" transform="translate(98.448 36.141)" fill="#a0b8d1"/>
      <g transform="matrix(1, 0, 0, 1, 0.81, -134.1)" filter="url(#Combined_Shape)">
        <path id="Combined_Shape-2" data-name="Combined Shape" d="M43.839,11.4a57.751,57.751,0,0,0,40.083,16.4h47.346c9.9,0,14.434,6.467,16.511,18.224L164.349,140.8H51.2a26,26,0,0,1-25.147-19.4L.033,22.338A9.978,9.978,0,0,1,10.124,11.4H39.337a11,11,0,0,1,7.711,3.155Z" transform="translate(0 122.7)" fill="#caecff"/>
      </g>
      <g id="Group_2" data-name="Group 2" transform="translate(51.229 59.259)" opacity="0.8">
        <path id="Rectangle_3_Copy" data-name="Rectangle 3 Copy" d="M0,8.008A7.946,7.946,0,0,1,5.085,1.043L8.345,0l5.637,1.841a4,4,0,0,1,2.537,3.5h0a2.257,2.257,0,0,1-2.539,1.844L8.3,5.339,2.541,7.191A2.263,2.263,0,0,1,0,5.339Z" transform="translate(0 0)" fill="#1b3554" opacity="0.391"/>
        <path id="Rectangle_3_Copy_2" data-name="Rectangle 3 Copy 2" d="M0,8.008A7.946,7.946,0,0,1,5.085,1.043L8.345,0l5.637,1.841a4,4,0,0,1,2.537,3.5h0a2.257,2.257,0,0,1-2.539,1.844L8.3,5.339,2.541,7.191A2.263,2.263,0,0,1,0,5.339Z" transform="translate(41.586 0)" fill="#1b3554" opacity="0.391"/>
        <path id="Oval_10" data-name="Oval 10" d="M13.828,15.429c7.637,0,13.828-5.688,13.828-15.423C13.828-.051,10.854.288,0,.007,0,9.741,6.191,15.429,13.828,15.429Z" transform="translate(16.136 15.423)" fill="#1b3554" opacity="0.391"/>
      </g>
    </g>
    <g id="pink" transform="translate(45.549 72.597) rotate(-3)">
      <path id="Path_10" data-name="Path 10" d="M20.507,0C22.841,14.356,12.676,29.028,0,39.486c10.65,5.759,29.985,13.783,45.617,18.65.744.232,3.078-.054,3.8.072,4.387.766,6.866-2.417,8.537-3.375,6.887-7.231,13.664-12.454,17.11-22.6,1.767-5.2,2.767-9.629,2.81-11.53C72.3,15.527,58.972,15.674,20.507,0Z" transform="translate(0.768 19.163) rotate(-14)" fill="#ff96bc"/>
      <path id="Path_11" data-name="Path 11" d="M5.419,33.891C8.284,36.7,5.63,44.2,0,44.065c5.982.08,9.208-2.095,11.532-4.277S24.766,27.476,23.428,0C23.6,23.228,17.894,34.567,5.419,33.891Z" transform="translate(57.878 20.457)" fill="#f46da0"/>
    </g>
    <g id="yellow" transform="translate(116.013 0.387) rotate(21)">
      <path id="Path_12" data-name="Path 12" d="M.728,0A83.7,83.7,0,0,1,7.383,7.451c3.819,5.009,4.959,11.932,4.694,12.107-1.449.954-9.732-4.549-11.35-9.018C-.728,6.521.728,0,.728,0Z" transform="translate(68.685 5.302)" fill="#ffb883"/>
      <path id="Path_9" data-name="Path 9" d="M0,48.845S28.558,29.337,29.943.234c5-.746,14.656.185,38.885,4.4,3.385.589.6,10.744.6,10.744s12.253,4.5,11.229,8.565C74.734,47.465,66.9,58.189,55.08,63.228,34.74,65.812,0,48.845,0,48.845Z" transform="translate(0 0.4)" fill="#ffdf87"/>
    </g>
    <g id="mark" transform="translate(147.617 241.472)">
      <g transform="matrix(1, 0, 0, 1, -146.81, -240.71)" filter="url(#Oval_2)">
        <circle id="Oval_2-2" data-name="Oval 2" cx="16.037" cy="16.037" r="16.037" transform="translate(146.81 240.71)" fill="#44ceff"/>
      </g>
      <path id="Shape" d="M4.5,9.167a1.366,1.366,0,0,0,1.933,0l6.834-6.834A1.367,1.367,0,0,0,11.335.4L5.467,6.268,2.333,3.134A1.367,1.367,0,0,0,.4,5.067Z" transform="translate(9.112 11.846)" fill="#fff"/>
    </g>
  </g>
</svg>
